<?xml version="1.0" encoding="utf-8"?>
<!-- Generator: Adobe Illustrator 21.0.0, SVG Export Plug-In . SVG Version: 6.00 Build 0)  -->
<svg version="1.1" xmlns="http://www.w3.org/2000/svg" xmlns:xlink="http://www.w3.org/1999/xlink" x="0px" y="0px"
	 viewBox="0 0 1400 980" style="enable-background:new 0 0 1400 980;" xml:space="preserve">
<style type="text/css">
	.st0{fill:#E6E7E8;}
	.st1{fill:#F15A29;}
	.st2{fill:#DD441B;}
	.st3{fill:#FFFFFF;}
	.st4{font-family:'TauriRegular';}
	.st5{font-size:13.1067px;}
	.st6{font-size:28.1459px;}
	.st7{font-size:10.653px;}
	.st8{font-size:9.5629px;}
	.st9{font-size:20.2199px;}
	.st10{font-size:14.3724px;}
	.st11{font-size:10.4179px;}
	.st12{font-size:4.3504px;}
	.st13{fill:#00A79D;}
	.st14{fill:#039385;}
	.st15{fill:#25A8C1;}
	.st16{fill:#1C95A5;}
	.st17{fill:#1176B5;}
	.st18{fill:#0D638E;}
	.st19{fill:#2BB673;}
	.st20{fill:#25A565;}
	.st21{fill:#D7DF23;}
	.st22{fill:#8DC63F;}
</style>
<g id="Background">
</g>
<g id="Object">
	<rect class="st0" width="1400" height="980"/>
	<g>
		<g>
			<rect x="252.3" y="80.1" class="st1" width="214.8" height="380.2"/>
			<path class="st2" d="M467.1,145.8C430.2,198,343.8,253.8,298,291.6c-22.7,18.7-36.9,41.6-45.7,62.1v106.6h214.8V145.8z"/>
			<g>
				<circle class="st3" cx="359.7" cy="219.5" r="20.3"/>
				<g>
					<path class="st3" d="M361.5,184.4c0,1.4-0.8,11.2-1.8,11.2c-1,0-1.8-9.9-1.8-11.2c0-1.4,0.8-3.8,1.8-3.8
						C360.7,180.6,361.5,183,361.5,184.4z"/>
					<path class="st3" d="M357.9,254.5c0-1.4,0.8-11.2,1.8-11.2c1,0,1.8,9.9,1.8,11.2c0,1.4-0.8,3.8-1.8,3.8
						C358.7,258.3,357.9,255.9,357.9,254.5z"/>
				</g>
				<g>
					<path class="st3" d="M394.8,221.3c-1.4,0-11.2-0.8-11.2-1.8c0-1,9.9-1.8,11.2-1.8s3.8,0.8,3.8,1.8
						C398.5,220.5,396.1,221.3,394.8,221.3z"/>
					<path class="st3" d="M324.6,217.7c1.4,0,11.2,0.8,11.2,1.8c0,1-9.9,1.8-11.2,1.8s-3.8-0.8-3.8-1.8
						C320.9,218.5,323.3,217.7,324.6,217.7z"/>
				</g>
				<g>
					<path class="st3" d="M385.8,195.9c-1,1-8.5,7.4-9.2,6.7c-0.7-0.7,5.7-8.2,6.7-9.2s3.2-2.1,3.9-1.4
						C387.9,192.7,386.7,195,385.8,195.9z"/>
					<path class="st3" d="M333.6,243c1-1,8.5-7.4,9.2-6.7c0.7,0.7-5.7,8.2-6.7,9.2c-1,1-3.2,2.1-3.9,1.4
						C331.5,246.2,332.7,244,333.6,243z"/>
				</g>
				<g>
					<path class="st3" d="M383.2,245.5c-1-1-7.4-8.5-6.7-9.2c0.7-0.7,8.2,5.7,9.2,6.7s2.1,3.2,1.4,3.9
						C386.5,247.6,384.2,246.5,383.2,245.5z"/>
					<path class="st3" d="M336.2,193.4c1,1,7.4,8.5,6.7,9.2c-0.7,0.7-8.2-5.7-9.2-6.7c-1-1-2.1-3.2-1.4-3.9
						C332.9,191.3,335.2,192.4,336.2,193.4z"/>
				</g>
			</g>
			<text transform="matrix(1 0 0 1 340.9116 339.0063)" class="st3 st4 st5">Sunny</text>
			<g>
				<text transform="matrix(1 0 0 1 331.7715 311.7178)" class="st3 st4 st6">22 C</text>
				<text transform="matrix(1 0 0 1 364.2588 296.9912)" class="st3 st4 st7">o</text>
			</g>
			<text transform="matrix(1 0 0 1 269.6279 136.1387)" class="st3 st4 st8">Januari 11 2019</text>
			<text transform="matrix(1 0 0 1 269.6279 167.9707)" class="st3 st4 st9">08:43</text>
			<text transform="matrix(1 0 0 1 269.6279 121.978)" class="st3 st4 st5">Friday</text>
			<g>
				<rect x="269.6" y="143.6" class="st3" width="90.1" height="1.2"/>
			</g>
			<g>
				<text transform="matrix(1 0 0 1 424.4565 412.5313)"><tspan x="0" y="0" class="st3 st4 st10">City</tspan><tspan x="-27.3" y="17.2" class="st3 st4 st10">Country</tspan></text>
			</g>
			<g>
				<g>
					<path class="st3" d="M441.2,95.6c-0.5,0.5-0.9,1-1.3,1.5c-0.4,0.5-0.8,1.1-1.1,1.8c0.7-0.3,1.2-0.7,1.8-1.1
						c0.5-0.4,1.1-0.8,1.5-1.3c0.5-0.5,0.9-1,1.3-1.5c0.4-0.5,0.8-1.1,1.1-1.8c-0.7,0.3-1.2,0.7-1.8,1.1
						C442.1,94.7,441.6,95.1,441.2,95.6z"/>
					<path class="st3" d="M441.6,89.7c-3.5,0-6.4,2.9-6.4,6.4c0,3.5,2.9,6.4,6.4,6.4s6.4-2.9,6.4-6.4
						C448,92.5,445.2,89.7,441.6,89.7z M441.6,101.2c-2.8,0-5.1-2.3-5.1-5.1s2.3-5.1,5.1-5.1c2.8,0,5.1,2.3,5.1,5.1
						S444.4,101.2,441.6,101.2z"/>
				</g>
				<path class="st3" d="M428,95.2h-0.9c-0.2,0-0.4-0.1-0.4-0.3c-0.1-0.2-0.1-0.3-0.2-0.5c-0.1-0.2-0.1-0.4,0.1-0.5l0.6-0.6
					c0.2-0.2,0.2-0.4,0-0.6l-1.3-1.3c-0.2-0.2-0.4-0.2-0.6,0l-0.6,0.6c-0.1,0.1-0.3,0.2-0.5,0.1c-0.2-0.1-0.3-0.1-0.5-0.2
					c-0.2-0.1-0.3-0.2-0.3-0.4v-0.9c0-0.2-0.2-0.4-0.4-0.4h-1.8c-0.2,0-0.4,0.2-0.4,0.4v0.9c0,0.2-0.1,0.4-0.3,0.4
					c-0.2,0.1-0.3,0.1-0.5,0.2c-0.2,0.1-0.4,0.1-0.5-0.1l-0.6-0.6c-0.2-0.2-0.4-0.2-0.6,0l-1.3,1.3c-0.2,0.2-0.2,0.4,0,0.6l0.6,0.6
					c0.1,0.1,0.2,0.3,0.1,0.5c-0.1,0.2-0.1,0.3-0.2,0.5c-0.1,0.2-0.2,0.3-0.4,0.3H416c-0.2,0-0.4,0.2-0.4,0.4v1.8
					c0,0.2,0.2,0.4,0.4,0.4h0.9c0.2,0,0.4,0.1,0.4,0.3c0.1,0.2,0.1,0.3,0.2,0.5c0.1,0.2,0.1,0.4-0.1,0.5l-0.6,0.6
					c-0.2,0.2-0.2,0.4,0,0.6l1.3,1.3c0.2,0.2,0.4,0.2,0.6,0l0.6-0.6c0.1-0.1,0.3-0.2,0.5-0.1c0.2,0.1,0.3,0.1,0.5,0.2
					c0.2,0.1,0.3,0.2,0.3,0.4v0.9c0,0.2,0.2,0.4,0.4,0.4h1.8c0.2,0,0.4-0.2,0.4-0.4v-0.9c0-0.2,0.1-0.4,0.3-0.4
					c0.2-0.1,0.3-0.1,0.5-0.2c0.2-0.1,0.4-0.1,0.5,0.1l0.6,0.6c0.2,0.2,0.4,0.2,0.6,0l1.3-1.3c0.2-0.2,0.2-0.4,0-0.6l-0.6-0.6
					c-0.1-0.1-0.2-0.3-0.1-0.5c0.1-0.2,0.1-0.3,0.2-0.5c0.1-0.2,0.2-0.3,0.4-0.3h0.9c0.2,0,0.4-0.2,0.4-0.4v-1.8
					C428.5,95.4,428.3,95.2,428,95.2z M422,98.8c-1.2,0-2.2-1-2.2-2.2c0-1.2,1-2.2,2.2-2.2c1.2,0,2.2,1,2.2,2.2
					C424.2,97.8,423.2,98.8,422,98.8z"/>
				<circle class="st3" cx="454.8" cy="91.1" r="1"/>
				<circle class="st3" cx="454.8" cy="95.8" r="1"/>
				<circle class="st3" cx="454.8" cy="100.5" r="1"/>
			</g>
			<rect x="252.3" y="368.6" class="st3" width="113" height="5.7"/>
			<rect x="252.3" y="367.5" class="st3" width="214.8" height="1.1"/>
			<rect x="252.3" y="373.8" class="st3" width="214.8" height="1.1"/>
			<g>
				<text transform="matrix(1 0 0 1 336.4863 392.793)" class="st3 st4 st11">-1 C/+1 c</text>
				<text transform="matrix(1 0 0 1 346.6729 387.0112)" class="st3 st4 st12">o</text>
				<text transform="matrix(1 0 0 1 374.3525 387.0112)" class="st3 st4 st12">o</text>
			</g>
		</g>
		<g>
			<rect x="252.3" y="519.7" class="st13" width="214.8" height="380.2"/>
			<path class="st14" d="M467.1,585.4C430.2,637.7,343.8,693.5,298,731.2c-22.7,18.7-36.9,41.6-45.7,62.1v106.6h214.8V585.4z"/>
			<text transform="matrix(1 0 0 1 342.6333 778.625)" class="st3 st4 st5">Rainy</text>
			<g>
				<text transform="matrix(1 0 0 1 333.5996 751.3359)" class="st3 st4 st6">12 C</text>
				<text transform="matrix(1 0 0 1 364.2588 736.6094)" class="st3 st4 st7">o</text>
			</g>
			<text transform="matrix(1 0 0 1 269.6279 575.7578)" class="st3 st4 st8">Januari 11 2019</text>
			<text transform="matrix(1 0 0 1 269.6279 607.5898)" class="st3 st4 st9">08:43</text>
			<text transform="matrix(1 0 0 1 269.6279 561.5967)" class="st3 st4 st5">Monday</text>
			<g>
				<rect x="269.6" y="583.2" class="st3" width="90.1" height="1.2"/>
			</g>
			<g>
				<text transform="matrix(1 0 0 1 424.4565 852.1494)"><tspan x="0" y="0" class="st3 st4 st10">City</tspan><tspan x="-27.3" y="17.2" class="st3 st4 st10">Country</tspan></text>
			</g>
			<g>
				<g>
					<path class="st3" d="M441.2,535.2c-0.5,0.5-0.9,1-1.3,1.5c-0.4,0.5-0.8,1.1-1.1,1.8c0.7-0.3,1.2-0.7,1.8-1.1
						c0.5-0.4,1.1-0.8,1.5-1.3c0.5-0.5,0.9-1,1.3-1.5c0.4-0.5,0.8-1.1,1.1-1.8c-0.7,0.3-1.2,0.7-1.8,1.1
						C442.1,534.3,441.6,534.8,441.2,535.2z"/>
					<path class="st3" d="M441.6,529.3c-3.5,0-6.4,2.9-6.4,6.4c0,3.5,2.9,6.4,6.4,6.4s6.4-2.9,6.4-6.4
						C448,532.2,445.2,529.3,441.6,529.3z M441.6,540.8c-2.8,0-5.1-2.3-5.1-5.1c0-2.8,2.3-5.1,5.1-5.1c2.8,0,5.1,2.3,5.1,5.1
						C446.7,538.5,444.4,540.8,441.6,540.8z"/>
				</g>
				<path class="st3" d="M428,534.8h-0.9c-0.2,0-0.4-0.1-0.4-0.3c-0.1-0.2-0.1-0.3-0.2-0.5c-0.1-0.2-0.1-0.4,0.1-0.5l0.6-0.6
					c0.2-0.2,0.2-0.4,0-0.6l-1.3-1.3c-0.2-0.2-0.4-0.2-0.6,0l-0.6,0.6c-0.1,0.1-0.3,0.2-0.5,0.1c-0.2-0.1-0.3-0.1-0.5-0.2
					c-0.2-0.1-0.3-0.2-0.3-0.4v-0.9c0-0.2-0.2-0.4-0.4-0.4h-1.8c-0.2,0-0.4,0.2-0.4,0.4v0.9c0,0.2-0.1,0.4-0.3,0.4
					c-0.2,0.1-0.3,0.1-0.5,0.2c-0.2,0.1-0.4,0.1-0.5-0.1l-0.6-0.6c-0.2-0.2-0.4-0.2-0.6,0l-1.3,1.3c-0.2,0.2-0.2,0.4,0,0.6l0.6,0.6
					c0.1,0.1,0.2,0.3,0.1,0.5c-0.1,0.2-0.1,0.3-0.2,0.5c-0.1,0.2-0.2,0.3-0.4,0.3H416c-0.2,0-0.4,0.2-0.4,0.4v1.8
					c0,0.2,0.2,0.4,0.4,0.4h0.9c0.2,0,0.4,0.1,0.4,0.3c0.1,0.2,0.1,0.3,0.2,0.5c0.1,0.2,0.1,0.4-0.1,0.5l-0.6,0.6
					c-0.2,0.2-0.2,0.4,0,0.6l1.3,1.3c0.2,0.2,0.4,0.2,0.6,0l0.6-0.6c0.1-0.1,0.3-0.2,0.5-0.1c0.2,0.1,0.3,0.1,0.5,0.2
					c0.2,0.1,0.3,0.2,0.3,0.4v0.9c0,0.2,0.2,0.4,0.4,0.4h1.8c0.2,0,0.4-0.2,0.4-0.4v-0.9c0-0.2,0.1-0.4,0.3-0.4
					c0.2-0.1,0.3-0.1,0.5-0.2c0.2-0.1,0.4-0.1,0.5,0.1l0.6,0.6c0.2,0.2,0.4,0.2,0.6,0l1.3-1.3c0.2-0.2,0.2-0.4,0-0.6l-0.6-0.6
					c-0.1-0.1-0.2-0.3-0.1-0.5c0.1-0.2,0.1-0.3,0.2-0.5c0.1-0.2,0.2-0.3,0.4-0.3h0.9c0.2,0,0.4-0.2,0.4-0.4v-1.8
					C428.5,535,428.3,534.8,428,534.8z M422,538.4c-1.2,0-2.2-1-2.2-2.2c0-1.2,1-2.2,2.2-2.2c1.2,0,2.2,1,2.2,2.2
					C424.2,537.4,423.2,538.4,422,538.4z"/>
				<circle class="st3" cx="454.8" cy="530.8" r="1"/>
				<circle class="st3" cx="454.8" cy="535.4" r="1"/>
				<circle class="st3" cx="454.8" cy="540.1" r="1"/>
			</g>
			<rect x="252.3" y="808.2" class="st3" width="113" height="5.7"/>
			<rect x="252.3" y="807.1" class="st3" width="214.8" height="1.1"/>
			<rect x="252.3" y="813.4" class="st3" width="214.8" height="1.1"/>
			<g>
				<text transform="matrix(1 0 0 1 336.4863 832.4111)" class="st3 st4 st11">-1 C/+1 c</text>
				<text transform="matrix(1 0 0 1 346.6729 826.6299)" class="st3 st4 st12">o</text>
				<text transform="matrix(1 0 0 1 374.3525 826.6299)" class="st3 st4 st12">o</text>
			</g>
			<g>
				<path class="st3" d="M379.3,636.5c-0.7,0-1.4,0.1-2.1,0.2c-2.3-6.2-8.3-10.7-15.3-10.7c-5.6,0-10.6,2.9-13.5,7.2
					c-4.8,0.5-8.8,3.6-10.5,7.9c-0.1,0-0.1,0-0.2,0c-4.8,0-8.7,3.9-8.7,8.7c0,4.8,3.9,8.7,8.7,8.7c2,0,38.5,0,41.5,0
					c6.1,0,11-4.9,11-11C390.3,641.5,385.4,636.5,379.3,636.5z"/>
				<g>
					<path class="st3" d="M366.9,686c0.3-0.8,2.1-3.8,2.6-3.6s-0.2,3.6-0.5,4.4c-0.3,0.8-1.1,1.4-1.7,1.1
						C366.8,687.8,366.6,686.8,366.9,686z"/>
					<path class="st3" d="M371.1,675.3c0.3-0.8,2.1-3.8,2.6-3.6c0.6,0.2-0.2,3.6-0.5,4.4s-1.1,1.4-1.7,1.1
						C371,677.1,370.8,676.1,371.1,675.3z"/>
					<path class="st3" d="M375.4,664.6c0.3-0.8,2.1-3.8,2.6-3.6s-0.2,3.6-0.5,4.4s-1.1,1.4-1.7,1.1S375,665.4,375.4,664.6z"/>
					<path class="st3" d="M359,690.1c0.3-0.8,2.1-3.8,2.6-3.6c0.6,0.2-0.2,3.6-0.5,4.4s-1.1,1.4-1.7,1.1
						C358.9,691.8,358.7,690.9,359,690.1z"/>
					<path class="st3" d="M363.3,679.4c0.3-0.8,2.1-3.8,2.6-3.6c0.6,0.2-0.2,3.6-0.5,4.4c-0.3,0.8-1.1,1.4-1.7,1.1
						S363,680.2,363.3,679.4z"/>
					<path class="st3" d="M367.5,668.7c0.3-0.8,2.1-3.8,2.6-3.6s-0.2,3.6-0.5,4.4s-1.1,1.4-1.7,1.1
						C367.4,670.4,367.2,669.5,367.5,668.7z"/>
					<path class="st3" d="M353.8,686c0.3-0.8,2.1-3.8,2.6-3.6s-0.2,3.6-0.5,4.4s-1.1,1.4-1.7,1.1C353.7,687.8,353.5,686.8,353.8,686
						z"/>
					<path class="st3" d="M358,675.3c0.3-0.8,2.1-3.8,2.6-3.6c0.6,0.2-0.2,3.6-0.5,4.4c-0.3,0.8-1.1,1.4-1.7,1.1
						C357.9,677.1,357.7,676.1,358,675.3z"/>
					<path class="st3" d="M362.3,664.6c0.3-0.8,2.1-3.8,2.6-3.6s-0.2,3.6-0.5,4.4s-1.1,1.4-1.7,1.1
						C362.1,666.3,362,665.4,362.3,664.6z"/>
					<path class="st3" d="M346,690.1c0.3-0.8,2.1-3.8,2.6-3.6c0.6,0.2-0.2,3.6-0.5,4.4s-1.1,1.4-1.7,1.1
						C345.8,691.8,345.6,690.9,346,690.1z"/>
					<path class="st3" d="M350.2,679.4c0.3-0.8,2.1-3.8,2.6-3.6c0.6,0.2-0.2,3.6-0.5,4.4c-0.3,0.8-1.1,1.4-1.7,1.1
						S349.9,680.2,350.2,679.4z"/>
					<path class="st3" d="M354.4,668.7c0.3-0.8,2.1-3.8,2.6-3.6c0.6,0.2-0.2,3.6-0.5,4.4s-1.1,1.4-1.7,1.1
						C354.3,670.4,354.1,669.5,354.4,668.7z"/>
					<path class="st3" d="M340.7,686c0.3-0.8,2.1-3.8,2.6-3.6s-0.2,3.6-0.5,4.4s-1.1,1.4-1.7,1.1C340.6,687.8,340.4,686.8,340.7,686
						z"/>
					<path class="st3" d="M345,675.3c0.3-0.8,2.1-3.8,2.6-3.6c0.6,0.2-0.2,3.6-0.5,4.4s-1.1,1.4-1.7,1.1
						C344.8,677.1,344.6,676.1,345,675.3z"/>
					<path class="st3" d="M349.2,664.6c0.3-0.8,2.1-3.8,2.6-3.6s-0.2,3.6-0.5,4.4c-0.3,0.8-1.1,1.4-1.7,1.1S348.9,665.4,349.2,664.6
						z"/>
					<path class="st3" d="M332.9,690.1c0.3-0.8,2.1-3.8,2.6-3.6c0.6,0.2-0.2,3.6-0.5,4.4s-1.1,1.4-1.7,1.1
						C332.7,691.8,332.6,690.9,332.9,690.1z"/>
					<path class="st3" d="M337.1,679.4c0.3-0.8,2.1-3.8,2.6-3.6c0.6,0.2-0.2,3.6-0.5,4.4c-0.3,0.8-1.1,1.4-1.7,1.1
						S336.8,680.2,337.1,679.4z"/>
					<path class="st3" d="M341.3,668.7c0.3-0.8,2.1-3.8,2.6-3.6s-0.2,3.6-0.5,4.4s-1.1,1.4-1.7,1.1
						C341.2,670.4,341,669.5,341.3,668.7z"/>
				</g>
			</g>
		</g>
		<g>
			<rect x="588.6" y="519.7" class="st15" width="214.8" height="380.2"/>
			<path class="st16" d="M803.5,585.4c-36.9,52.3-123.3,108.1-169.1,145.8c-22.7,18.7-36.9,41.6-45.7,62.1v106.6h214.8V585.4z"/>
			<text transform="matrix(1 0 0 1 679.4448 778.625)" class="st3 st4 st5">Snow</text>
			<g>
				<text transform="matrix(1 0 0 1 671.769 751.3359)" class="st3 st4 st6">11 C</text>
				<text transform="matrix(1 0 0 1 695.3208 736.6094)" class="st3 st4 st7">o</text>
			</g>
			<text transform="matrix(1 0 0 1 605.9692 575.7578)" class="st3 st4 st8">Januari 11 2019</text>
			<text transform="matrix(1 0 0 1 605.9692 607.5898)" class="st3 st4 st9">08:43</text>
			<text transform="matrix(1 0 0 1 605.9692 561.5967)" class="st3 st4 st5">Tuesday</text>
			<g>
				<rect x="606" y="583.2" class="st3" width="90.1" height="1.2"/>
			</g>
			<g>
				<text transform="matrix(1 0 0 1 760.7988 852.1494)"><tspan x="0" y="0" class="st3 st4 st10">City</tspan><tspan x="-27.3" y="17.2" class="st3 st4 st10">Country</tspan></text>
			</g>
			<g>
				<g>
					<path class="st3" d="M777.5,535.2c-0.5,0.5-0.9,1-1.3,1.5c-0.4,0.5-0.8,1.1-1.1,1.8c0.7-0.3,1.2-0.7,1.8-1.1
						c0.5-0.4,1.1-0.8,1.5-1.3c0.5-0.5,0.9-1,1.3-1.5c0.4-0.5,0.8-1.1,1.1-1.8c-0.7,0.3-1.2,0.7-1.8,1.1
						C778.5,534.3,778,534.8,777.5,535.2z"/>
					<path class="st3" d="M778,529.3c-3.5,0-6.4,2.9-6.4,6.4c0,3.5,2.9,6.4,6.4,6.4c3.5,0,6.4-2.9,6.4-6.4
						C784.4,532.2,781.5,529.3,778,529.3z M778,540.8c-2.8,0-5.1-2.3-5.1-5.1c0-2.8,2.3-5.1,5.1-5.1c2.8,0,5.1,2.3,5.1,5.1
						C783.1,538.5,780.8,540.8,778,540.8z"/>
				</g>
				<path class="st3" d="M764.4,534.8h-0.9c-0.2,0-0.4-0.1-0.4-0.3c-0.1-0.2-0.1-0.3-0.2-0.5c-0.1-0.2-0.1-0.4,0.1-0.5l0.6-0.6
					c0.2-0.2,0.2-0.4,0-0.6l-1.3-1.3c-0.2-0.2-0.4-0.2-0.6,0l-0.6,0.6c-0.1,0.1-0.3,0.2-0.5,0.1c-0.2-0.1-0.3-0.1-0.5-0.2
					c-0.2-0.1-0.3-0.2-0.3-0.4v-0.9c0-0.2-0.2-0.4-0.4-0.4h-1.8c-0.2,0-0.4,0.2-0.4,0.4v0.9c0,0.2-0.1,0.4-0.3,0.4
					c-0.2,0.1-0.3,0.1-0.5,0.2c-0.2,0.1-0.4,0.1-0.5-0.1l-0.6-0.6c-0.2-0.2-0.4-0.2-0.6,0l-1.3,1.3c-0.2,0.2-0.2,0.4,0,0.6l0.6,0.6
					c0.1,0.1,0.2,0.3,0.1,0.5c-0.1,0.2-0.1,0.3-0.2,0.5c-0.1,0.2-0.2,0.3-0.4,0.3h-0.9c-0.2,0-0.4,0.2-0.4,0.4v1.8
					c0,0.2,0.2,0.4,0.4,0.4h0.9c0.2,0,0.4,0.1,0.4,0.3c0.1,0.2,0.1,0.3,0.2,0.5c0.1,0.2,0.1,0.4-0.1,0.5l-0.6,0.6
					c-0.2,0.2-0.2,0.4,0,0.6l1.3,1.3c0.2,0.2,0.4,0.2,0.6,0l0.6-0.6c0.1-0.1,0.3-0.2,0.5-0.1c0.2,0.1,0.3,0.1,0.5,0.2
					c0.2,0.1,0.3,0.2,0.3,0.4v0.9c0,0.2,0.2,0.4,0.4,0.4h1.8c0.2,0,0.4-0.2,0.4-0.4v-0.9c0-0.2,0.1-0.4,0.3-0.4
					c0.2-0.1,0.3-0.1,0.5-0.2c0.2-0.1,0.4-0.1,0.5,0.1l0.6,0.6c0.2,0.2,0.4,0.2,0.6,0l1.3-1.3c0.2-0.2,0.2-0.4,0-0.6l-0.6-0.6
					c-0.1-0.1-0.2-0.3-0.1-0.5c0.1-0.2,0.1-0.3,0.2-0.5c0.1-0.2,0.2-0.3,0.4-0.3h0.9c0.2,0,0.4-0.2,0.4-0.4v-1.8
					C764.8,535,764.6,534.8,764.4,534.8z M758.4,538.4c-1.2,0-2.2-1-2.2-2.2c0-1.2,1-2.2,2.2-2.2s2.2,1,2.2,2.2
					C760.6,537.4,759.6,538.4,758.4,538.4z"/>
				<circle class="st3" cx="791.2" cy="530.8" r="1"/>
				<circle class="st3" cx="791.2" cy="535.4" r="1"/>
				<circle class="st3" cx="791.2" cy="540.1" r="1"/>
			</g>
			<rect x="588.6" y="808.2" class="st3" width="113" height="5.7"/>
			<rect x="588.6" y="807.1" class="st3" width="214.8" height="1.1"/>
			<rect x="588.6" y="813.4" class="st3" width="214.8" height="1.1"/>
			<g>
				<text transform="matrix(1 0 0 1 672.8281 832.4111)" class="st3 st4 st11">-1 C/+1 c</text>
				<text transform="matrix(1 0 0 1 683.0146 826.6299)" class="st3 st4 st12">o</text>
				<text transform="matrix(1 0 0 1 710.6943 826.6299)" class="st3 st4 st12">o</text>
			</g>
			<g>
				<path class="st3" d="M720.9,664.6c-0.8-0.5-3.1-1.7-5.9-3.2c2.4-0.2,5.9-0.8,6.5-1c1-0.3,2.7-1.3,2.5-2.1s-2.1-0.9-3.2-0.6
					c-0.8,0.2-5.5,1.9-7.3,2.9c-2.4-1.3-5.1-2.7-7.8-4.1c1.7,0,4.2-0.4,4.7-0.5c0.7-0.2,1.8-1.1,1.6-1.9s-1.6-1-2.3-0.8
					c-0.6,0.2-4.4,1.6-5.3,2.5c-2.5-1.2-4.8-2.4-6.6-3.2c1.9-0.8,4.2-2,6.6-3.2c0.9,0.9,4.7,2.4,5.3,2.5c0.7,0.2,2.1-0.1,2.3-0.8
					c0.2-0.7-0.9-1.7-1.6-1.9c-0.5-0.1-3-0.5-4.7-0.5c2.6-1.3,5.4-2.8,7.8-4.1c1.8,1,6.5,2.7,7.3,2.9c1,0.3,3,0.1,3.2-0.6
					s-1.4-1.8-2.5-2.1c-0.7-0.2-4.2-0.8-6.5-1c2.8-1.5,5.1-2.8,5.9-3.2c3.2-1.9,3.7-3.3,3.1-4.3c-0.6-1-2.1-1.3-5.3,0.6
					c-0.8,0.5-3,1.8-5.7,3.6c1-2.2,2.1-5.5,2.3-6.2c0.3-1,0.1-3-0.6-3.2s-1.8,1.4-2.1,2.5c-0.2,0.8-1.1,5.7-1.1,7.8
					c-2.3,1.5-4.9,3.1-7.4,4.8c0.8-1.5,1.7-3.8,1.9-4.3c0.2-0.7-0.1-2.1-0.8-2.3s-1.7,0.9-1.9,1.6c-0.2,0.6-0.7,4.7-0.4,5.9
					c-2.3,1.5-4.4,3-6,4.2c0.2-2,0.4-4.6,0.6-7.3c1.2-0.3,4.4-2.9,4.9-3.3c0.5-0.5,1-1.9,0.4-2.4c-0.5-0.5-1.9-0.1-2.4,0.4
					c-0.3,0.3-1.9,2.3-2.8,3.8c0.2-3,0.3-6,0.4-8.8c1.8-1,5.6-4.3,6.2-4.9c0.7-0.7,1.6-2.5,1.1-3s-2.3,0.3-3,1.1
					c-0.5,0.5-2.8,3.2-4.2,5.1c0.1-3.2,0.2-5.8,0.2-6.8c0-3.7-1-4.8-2.1-4.8c-1.2,0-2.1,1.1-2.1,4.8c0,1,0.1,3.5,0.2,6.8
					c-1.4-1.9-3.7-4.6-4.2-5.1c-0.7-0.7-2.5-1.6-3-1.1c-0.5,0.5,0.3,2.3,1.1,3c0.6,0.6,4.4,3.8,6.2,4.9c0.1,2.7,0.2,5.8,0.4,8.8
					c-0.9-1.4-2.4-3.4-2.8-3.8c-0.5-0.5-1.9-1-2.4-0.4c-0.5,0.5-0.1,1.9,0.4,2.4c0.5,0.5,3.7,3,4.9,3.3c0.2,2.7,0.3,5.3,0.6,7.3
					c-1.6-1.2-3.8-2.6-6-4.2c0.3-1.2-0.2-5.3-0.4-5.9c-0.2-0.7-1.1-1.8-1.9-1.6s-1,1.6-0.8,2.3c0.1,0.5,1,2.9,1.9,4.3
					c-2.5-1.6-5-3.3-7.4-4.8c0-2.1-0.9-7-1.1-7.8c-0.3-1-1.3-2.7-2.1-2.5c-0.7,0.2-0.9,2.1-0.6,3.2c0.2,0.7,1.3,4,2.3,6.2
					c-2.7-1.7-4.9-3.1-5.7-3.6c-3.2-1.9-4.7-1.6-5.3-0.6c-0.6,1-0.1,2.4,3.1,4.3c0.8,0.5,3.1,1.7,5.9,3.2c-2.4,0.2-5.9,0.8-6.5,1
					c-1,0.3-2.7,1.3-2.5,2.1s2.1,0.9,3.2,0.6c0.8-0.2,5.5-1.9,7.3-2.9c2.4,1.3,5.1,2.7,7.8,4.1c-1.7,0-4.2,0.4-4.7,0.5
					c-0.7,0.2-1.8,1.1-1.6,1.9c0.2,0.7,1.6,1,2.3,0.8c0.6-0.2,4.4-1.6,5.3-2.5c2.5,1.2,4.8,2.4,6.6,3.2c-1.9,0.8-4.2,2-6.6,3.2
					c-0.9-0.9-4.7-2.4-5.3-2.5c-0.7-0.2-2.1,0.1-2.3,0.8s0.9,1.7,1.6,1.9c0.5,0.1,3,0.5,4.7,0.5c-2.6,1.3-5.4,2.8-7.8,4.1
					c-1.8-1-6.5-2.7-7.3-2.9c-1-0.3-3-0.1-3.2,0.6s1.4,1.8,2.5,2.1c0.7,0.2,4.2,0.8,6.5,1c-2.8,1.5-5.1,2.8-5.9,3.2
					c-3.2,1.9-3.7,3.3-3.1,4.3c0.6,1,2.1,1.3,5.3-0.6c0.8-0.5,3-1.8,5.7-3.6c-1,2.2-2.1,5.5-2.3,6.2c-0.3,1-0.1,3,0.6,3.2
					c0.7,0.2,1.8-1.4,2.1-2.5c0.2-0.8,1.1-5.7,1.1-7.8c2.3-1.5,4.9-3.1,7.4-4.8c-0.8,1.5-1.7,3.8-1.9,4.3c-0.2,0.7,0.1,2.1,0.8,2.3
					c0.7,0.2,1.7-0.9,1.9-1.6c0.2-0.6,0.7-4.7,0.4-5.9c2.3-1.5,4.4-3,6-4.2c-0.2,2-0.4,4.6-0.6,7.3c-1.2,0.3-4.4,2.9-4.9,3.3
					c-0.5,0.5-1,1.9-0.4,2.4c0.5,0.5,1.9,0.1,2.4-0.4c0.3-0.3,1.9-2.3,2.8-3.8c-0.2,3-0.3,6-0.4,8.8c-1.8,1-5.6,4.3-6.2,4.9
					c-0.7,0.7-1.6,2.5-1.1,3c0.5,0.5,2.3-0.3,3-1.1c0.5-0.5,2.8-3.2,4.2-5.1c-0.1,3.2-0.2,5.8-0.2,6.8c0,3.7,1,4.8,2.1,4.8
					c1.2,0,2.1-1.1,2.1-4.8c0-1-0.1-3.5-0.2-6.8c1.4,1.9,3.7,4.6,4.2,5.1c0.7,0.7,2.5,1.6,3,1.1c0.5-0.5-0.3-2.3-1.1-3
					c-0.6-0.6-4.4-3.8-6.2-4.9c-0.1-2.7-0.2-5.8-0.4-8.8c0.9,1.4,2.4,3.4,2.8,3.8c0.5,0.5,1.9,1,2.4,0.4c0.5-0.5,0.1-1.9-0.4-2.4
					c-0.5-0.5-3.7-3-4.9-3.3c-0.2-2.7-0.3-5.3-0.6-7.3c1.6,1.2,3.8,2.6,6,4.2c-0.3,1.2,0.2,5.3,0.4,5.9c0.2,0.7,1.1,1.8,1.9,1.6
					c0.7-0.2,1-1.6,0.8-2.3c-0.1-0.5-1-2.9-1.9-4.3c2.5,1.6,5,3.3,7.4,4.8c0,2.1,0.9,7,1.1,7.8c0.3,1,1.3,2.7,2.1,2.5
					s0.9-2.1,0.6-3.2c-0.2-0.7-1.3-4-2.3-6.2c2.7,1.7,4.9,3.1,5.7,3.6c3.2,1.9,4.7,1.6,5.3,0.6C724.6,667.9,724.1,666.5,720.9,664.6
					z"/>
			</g>
		</g>
		<g>
			<rect x="932.9" y="519.7" class="st17" width="214.8" height="380.2"/>
			<path class="st18" d="M1147.7,585.4c-36.9,52.3-123.3,108.1-169.1,145.8c-22.7,18.7-36.9,41.6-45.7,62.1v106.6h214.8V585.4z"/>
			<text transform="matrix(1 0 0 1 1021.8193 778.625)" class="st3 st4 st5">Storm</text>
			<g>
				<text transform="matrix(1 0 0 1 1019.5225 751.3359)" class="st3 st4 st6">8 C</text>
				<text transform="matrix(1 0 0 1 1037.8447 736.6094)" class="st3 st4 st7">o</text>
			</g>
			<text transform="matrix(1 0 0 1 950.2324 575.7578)" class="st3 st4 st8">Januari 11 2019</text>
			<text transform="matrix(1 0 0 1 950.2324 607.5898)" class="st3 st4 st9">08:43</text>
			<text transform="matrix(1 0 0 1 950.2324 561.5967)" class="st3 st4 st5">Wednesday</text>
			<g>
				<rect x="950.2" y="583.2" class="st3" width="90.1" height="1.2"/>
			</g>
			<g>
				<text transform="matrix(1 0 0 1 1105.0615 852.1494)"><tspan x="0" y="0" class="st3 st4 st10">City</tspan><tspan x="-27.3" y="17.2" class="st3 st4 st10">Country</tspan></text>
			</g>
			<g>
				<g>
					<path class="st3" d="M1121.8,535.2c-0.5,0.5-0.9,1-1.3,1.5c-0.4,0.5-0.8,1.1-1.1,1.8c0.7-0.3,1.2-0.7,1.8-1.1
						c0.5-0.4,1.1-0.8,1.5-1.3c0.5-0.5,0.9-1,1.3-1.5c0.4-0.5,0.8-1.1,1.1-1.8c-0.7,0.3-1.2,0.7-1.8,1.1
						C1122.7,534.3,1122.2,534.8,1121.8,535.2z"/>
					<path class="st3" d="M1122.2,529.3c-3.5,0-6.4,2.9-6.4,6.4c0,3.5,2.9,6.4,6.4,6.4c3.5,0,6.4-2.9,6.4-6.4
						C1128.7,532.2,1125.8,529.3,1122.2,529.3z M1122.2,540.8c-2.8,0-5.1-2.3-5.1-5.1c0-2.8,2.3-5.1,5.1-5.1c2.8,0,5.1,2.3,5.1,5.1
						C1127.3,538.5,1125,540.8,1122.2,540.8z"/>
				</g>
				<path class="st3" d="M1108.6,534.8h-0.9c-0.2,0-0.4-0.1-0.4-0.3c-0.1-0.2-0.1-0.3-0.2-0.5c-0.1-0.2-0.1-0.4,0.1-0.5l0.6-0.6
					c0.2-0.2,0.2-0.4,0-0.6l-1.3-1.3c-0.2-0.2-0.4-0.2-0.6,0l-0.6,0.6c-0.1,0.1-0.3,0.2-0.5,0.1c-0.2-0.1-0.3-0.1-0.5-0.2
					c-0.2-0.1-0.3-0.2-0.3-0.4v-0.9c0-0.2-0.2-0.4-0.4-0.4h-1.8c-0.2,0-0.4,0.2-0.4,0.4v0.9c0,0.2-0.1,0.4-0.3,0.4
					c-0.2,0.1-0.3,0.1-0.5,0.2c-0.2,0.1-0.4,0.1-0.5-0.1l-0.6-0.6c-0.2-0.2-0.4-0.2-0.6,0l-1.3,1.3c-0.2,0.2-0.2,0.4,0,0.6l0.6,0.6
					c0.1,0.1,0.2,0.3,0.1,0.5c-0.1,0.2-0.1,0.3-0.2,0.5c-0.1,0.2-0.2,0.3-0.4,0.3h-0.9c-0.2,0-0.4,0.2-0.4,0.4v1.8
					c0,0.2,0.2,0.4,0.4,0.4h0.9c0.2,0,0.4,0.1,0.4,0.3c0.1,0.2,0.1,0.3,0.2,0.5c0.1,0.2,0.1,0.4-0.1,0.5l-0.6,0.6
					c-0.2,0.2-0.2,0.4,0,0.6l1.3,1.3c0.2,0.2,0.4,0.2,0.6,0l0.6-0.6c0.1-0.1,0.3-0.2,0.5-0.1c0.2,0.1,0.3,0.1,0.5,0.2
					c0.2,0.1,0.3,0.2,0.3,0.4v0.9c0,0.2,0.2,0.4,0.4,0.4h1.8c0.2,0,0.4-0.2,0.4-0.4v-0.9c0-0.2,0.1-0.4,0.3-0.4
					c0.2-0.1,0.3-0.1,0.5-0.2c0.2-0.1,0.4-0.1,0.5,0.1l0.6,0.6c0.2,0.2,0.4,0.2,0.6,0l1.3-1.3c0.2-0.2,0.2-0.4,0-0.6l-0.6-0.6
					c-0.1-0.1-0.2-0.3-0.1-0.5c0.1-0.2,0.1-0.3,0.2-0.5c0.1-0.2,0.2-0.3,0.4-0.3h0.9c0.2,0,0.4-0.2,0.4-0.4v-1.8
					C1109.1,535,1108.9,534.8,1108.6,534.8z M1102.6,538.4c-1.2,0-2.2-1-2.2-2.2c0-1.2,1-2.2,2.2-2.2s2.2,1,2.2,2.2
					C1104.8,537.4,1103.8,538.4,1102.6,538.4z"/>
				<circle class="st3" cx="1135.4" cy="530.8" r="1"/>
				<circle class="st3" cx="1135.4" cy="535.4" r="1"/>
				<circle class="st3" cx="1135.4" cy="540.1" r="1"/>
			</g>
			<rect x="932.9" y="808.2" class="st3" width="113" height="5.7"/>
			<rect x="932.9" y="807.1" class="st3" width="214.8" height="1.1"/>
			<rect x="932.9" y="813.4" class="st3" width="214.8" height="1.1"/>
			<g>
				<text transform="matrix(1 0 0 1 1017.0908 832.4111)" class="st3 st4 st11">-1 C/+1 c</text>
				<text transform="matrix(1 0 0 1 1027.2773 826.6299)" class="st3 st4 st12">o</text>
				<text transform="matrix(1 0 0 1 1054.957 826.6299)" class="st3 st4 st12">o</text>
			</g>
			<g>
				<polygon class="st3" points="1046,647.2 1027.4,664.9 1038.3,665.1 1024.3,688.9 1051.4,659.9 1041.2,659.9 				"/>
				<g>
					<path class="st3" d="M1061.9,640.8c-0.8,0-1.6,0.1-2.3,0.2c-2.5-6.9-9.1-11.8-16.8-11.8c-6.2,0-11.7,3.2-14.9,8
						c-5.3,0.5-9.7,4-11.6,8.7c-0.1,0-0.1,0-0.2,0c-5.3,0-9.6,4.3-9.6,9.6c0,5.3,4.3,9.6,9.6,9.6c0.6,0,3.7,0,8.2,0l26.7-25.2
						l-6.3,17.8h11.7l-6.9,7.4c6.3,0,11.3,0,12.4,0c6.7,0,12.1-5.4,12.1-12.1S1068.6,640.8,1061.9,640.8z"/>
				</g>
			</g>
		</g>
		<g>
			<rect x="932.9" y="80.1" class="st19" width="214.8" height="380.2"/>
			<path class="st20" d="M1147.7,145.8c-36.9,52.3-123.3,108.1-169.1,145.8c-22.7,18.7-36.9,41.6-45.7,62.1v106.6h214.8V145.8z"/>
			<g>
				<text transform="matrix(1 0 0 1 1014.2041 311.7178)" class="st3 st4 st6">12 C</text>
				<text transform="matrix(1 0 0 1 1044.8633 296.9912)" class="st3 st4 st7">o</text>
			</g>
			<text transform="matrix(1 0 0 1 950.2324 136.1387)" class="st3 st4 st8">Januari 11 2019</text>
			<text transform="matrix(1 0 0 1 950.2324 167.9707)" class="st3 st4 st9">08:43</text>
			<text transform="matrix(1 0 0 1 950.2324 121.978)" class="st3 st4 st5">Sunday</text>
			<g>
				<rect x="950.2" y="143.6" class="st3" width="90.1" height="1.2"/>
			</g>
			<g>
				<text transform="matrix(1 0 0 1 1105.0615 412.5313)"><tspan x="0" y="0" class="st3 st4 st10">City</tspan><tspan x="-27.3" y="17.2" class="st3 st4 st10">Country</tspan></text>
			</g>
			<g>
				<g>
					<path class="st3" d="M1121.8,95.6c-0.5,0.5-0.9,1-1.3,1.5c-0.4,0.5-0.8,1.1-1.1,1.8c0.7-0.3,1.2-0.7,1.8-1.1
						c0.5-0.4,1.1-0.8,1.5-1.3c0.5-0.5,0.9-1,1.3-1.5c0.4-0.5,0.8-1.1,1.1-1.8c-0.7,0.3-1.2,0.7-1.8,1.1
						C1122.7,94.7,1122.2,95.1,1121.8,95.6z"/>
					<path class="st3" d="M1122.2,89.7c-3.5,0-6.4,2.9-6.4,6.4c0,3.5,2.9,6.4,6.4,6.4c3.5,0,6.4-2.9,6.4-6.4
						C1128.7,92.5,1125.8,89.7,1122.2,89.7z M1122.2,101.2c-2.8,0-5.1-2.3-5.1-5.1s2.3-5.1,5.1-5.1c2.8,0,5.1,2.3,5.1,5.1
						S1125,101.2,1122.2,101.2z"/>
				</g>
				<path class="st3" d="M1108.6,95.2h-0.9c-0.2,0-0.4-0.1-0.4-0.3c-0.1-0.2-0.1-0.3-0.2-0.5c-0.1-0.2-0.1-0.4,0.1-0.5l0.6-0.6
					c0.2-0.2,0.2-0.4,0-0.6l-1.3-1.3c-0.2-0.2-0.4-0.2-0.6,0l-0.6,0.6c-0.1,0.1-0.3,0.2-0.5,0.1c-0.2-0.1-0.3-0.1-0.5-0.2
					c-0.2-0.1-0.3-0.2-0.3-0.4v-0.9c0-0.2-0.2-0.4-0.4-0.4h-1.8c-0.2,0-0.4,0.2-0.4,0.4v0.9c0,0.2-0.1,0.4-0.3,0.4
					c-0.2,0.1-0.3,0.1-0.5,0.2c-0.2,0.1-0.4,0.1-0.5-0.1l-0.6-0.6c-0.2-0.2-0.4-0.2-0.6,0l-1.3,1.3c-0.2,0.2-0.2,0.4,0,0.6l0.6,0.6
					c0.1,0.1,0.2,0.3,0.1,0.5c-0.1,0.2-0.1,0.3-0.2,0.5c-0.1,0.2-0.2,0.3-0.4,0.3h-0.9c-0.2,0-0.4,0.2-0.4,0.4v1.8
					c0,0.2,0.2,0.4,0.4,0.4h0.9c0.2,0,0.4,0.1,0.4,0.3c0.1,0.2,0.1,0.3,0.2,0.5c0.1,0.2,0.1,0.4-0.1,0.5l-0.6,0.6
					c-0.2,0.2-0.2,0.4,0,0.6l1.3,1.3c0.2,0.2,0.4,0.2,0.6,0l0.6-0.6c0.1-0.1,0.3-0.2,0.5-0.1c0.2,0.1,0.3,0.1,0.5,0.2
					c0.2,0.1,0.3,0.2,0.3,0.4v0.9c0,0.2,0.2,0.4,0.4,0.4h1.8c0.2,0,0.4-0.2,0.4-0.4v-0.9c0-0.2,0.1-0.4,0.3-0.4
					c0.2-0.1,0.3-0.1,0.5-0.2c0.2-0.1,0.4-0.1,0.5,0.1l0.6,0.6c0.2,0.2,0.4,0.2,0.6,0l1.3-1.3c0.2-0.2,0.2-0.4,0-0.6l-0.6-0.6
					c-0.1-0.1-0.2-0.3-0.1-0.5c0.1-0.2,0.1-0.3,0.2-0.5c0.1-0.2,0.2-0.3,0.4-0.3h0.9c0.2,0,0.4-0.2,0.4-0.4v-1.8
					C1109.1,95.4,1108.9,95.2,1108.6,95.2z M1102.6,98.8c-1.2,0-2.2-1-2.2-2.2c0-1.2,1-2.2,2.2-2.2s2.2,1,2.2,2.2
					C1104.8,97.8,1103.8,98.8,1102.6,98.8z"/>
				<circle class="st3" cx="1135.4" cy="91.1" r="1"/>
				<circle class="st3" cx="1135.4" cy="95.8" r="1"/>
				<circle class="st3" cx="1135.4" cy="100.5" r="1"/>
			</g>
			<rect x="932.9" y="368.6" class="st3" width="113" height="5.7"/>
			<rect x="932.9" y="367.5" class="st3" width="214.8" height="1.1"/>
			<rect x="932.9" y="373.8" class="st3" width="214.8" height="1.1"/>
			<g>
				<text transform="matrix(1 0 0 1 1017.0908 392.793)" class="st3 st4 st11">-1 C/+1 c</text>
				<text transform="matrix(1 0 0 1 1027.2773 387.0112)" class="st3 st4 st12">o</text>
				<text transform="matrix(1 0 0 1 1054.957 387.0112)" class="st3 st4 st12">o</text>
			</g>
			<path class="st3" d="M1061.9,213.1c-0.8,0-1.6,0.1-2.3,0.2c-2.5-6.9-9.1-11.8-16.8-11.8c-6.2,0-11.7,3.2-14.9,8
				c-5.3,0.5-9.7,4-11.6,8.7c-0.1,0-0.1,0-0.2,0c-5.3,0-9.6,4.3-9.6,9.6c0,5.3,4.3,9.6,9.6,9.6c2.2,0,42.5,0,45.8,0
				c6.7,0,12.1-5.4,12.1-12.1S1068.6,213.1,1061.9,213.1z"/>
			<text transform="matrix(1 0 0 1 1019.835 339.0063)" class="st3 st4 st5">Cloudy</text>
		</g>
		<g>
			<rect x="588.6" y="80.1" class="st21" width="214.8" height="380.2"/>
			<path class="st22" d="M803.5,145.8C766.5,198,680.2,253.8,634.3,291.6c-22.7,18.7-36.9,41.6-45.7,62.1v106.6h214.8V145.8z"/>
			<g>
				<text transform="matrix(1 0 0 1 669.0342 311.7178)" class="st3 st4 st6">16 C</text>
				<text transform="matrix(1 0 0 1 700.6006 296.9912)" class="st3 st4 st7">o</text>
			</g>
			<text transform="matrix(1 0 0 1 605.9692 136.1387)" class="st3 st4 st8">Januari 11 2019</text>
			<text transform="matrix(1 0 0 1 605.9692 167.9707)" class="st3 st4 st9">08:43</text>
			<text transform="matrix(1 0 0 1 605.9692 121.978)" class="st3 st4 st5">Saturday</text>
			<g>
				<rect x="606" y="143.6" class="st3" width="90.1" height="1.2"/>
			</g>
			<g>
				<text transform="matrix(1 0 0 1 760.7988 412.5313)"><tspan x="0" y="0" class="st3 st4 st10">City</tspan><tspan x="-27.3" y="17.2" class="st3 st4 st10">Country</tspan></text>
			</g>
			<g>
				<g>
					<path class="st3" d="M777.5,95.6c-0.5,0.5-0.9,1-1.3,1.5c-0.4,0.5-0.8,1.1-1.1,1.8c0.7-0.3,1.2-0.7,1.8-1.1
						c0.5-0.4,1.1-0.8,1.5-1.3c0.5-0.5,0.9-1,1.3-1.5c0.4-0.5,0.8-1.1,1.1-1.8c-0.7,0.3-1.2,0.7-1.8,1.1
						C778.5,94.7,778,95.1,777.5,95.6z"/>
					<path class="st3" d="M778,89.7c-3.5,0-6.4,2.9-6.4,6.4c0,3.5,2.9,6.4,6.4,6.4c3.5,0,6.4-2.9,6.4-6.4
						C784.4,92.5,781.5,89.7,778,89.7z M778,101.2c-2.8,0-5.1-2.3-5.1-5.1s2.3-5.1,5.1-5.1c2.8,0,5.1,2.3,5.1,5.1
						S780.8,101.2,778,101.2z"/>
				</g>
				<path class="st3" d="M764.4,95.2h-0.9c-0.2,0-0.4-0.1-0.4-0.3c-0.1-0.2-0.1-0.3-0.2-0.5c-0.1-0.2-0.1-0.4,0.1-0.5l0.6-0.6
					c0.2-0.2,0.2-0.4,0-0.6l-1.3-1.3c-0.2-0.2-0.4-0.2-0.6,0L761,92c-0.1,0.1-0.3,0.2-0.5,0.1c-0.2-0.1-0.3-0.1-0.5-0.2
					c-0.2-0.1-0.3-0.2-0.3-0.4v-0.9c0-0.2-0.2-0.4-0.4-0.4h-1.8c-0.2,0-0.4,0.2-0.4,0.4v0.9c0,0.2-0.1,0.4-0.3,0.4
					c-0.2,0.1-0.3,0.1-0.5,0.2c-0.2,0.1-0.4,0.1-0.5-0.1l-0.6-0.6c-0.2-0.2-0.4-0.2-0.6,0l-1.3,1.3c-0.2,0.2-0.2,0.4,0,0.6l0.6,0.6
					c0.1,0.1,0.2,0.3,0.1,0.5c-0.1,0.2-0.1,0.3-0.2,0.5c-0.1,0.2-0.2,0.3-0.4,0.3h-0.9c-0.2,0-0.4,0.2-0.4,0.4v1.8
					c0,0.2,0.2,0.4,0.4,0.4h0.9c0.2,0,0.4,0.1,0.4,0.3c0.1,0.2,0.1,0.3,0.2,0.5c0.1,0.2,0.1,0.4-0.1,0.5l-0.6,0.6
					c-0.2,0.2-0.2,0.4,0,0.6l1.3,1.3c0.2,0.2,0.4,0.2,0.6,0l0.6-0.6c0.1-0.1,0.3-0.2,0.5-0.1c0.2,0.1,0.3,0.1,0.5,0.2
					c0.2,0.1,0.3,0.2,0.3,0.4v0.9c0,0.2,0.2,0.4,0.4,0.4h1.8c0.2,0,0.4-0.2,0.4-0.4v-0.9c0-0.2,0.1-0.4,0.3-0.4
					c0.2-0.1,0.3-0.1,0.5-0.2c0.2-0.1,0.4-0.1,0.5,0.1l0.6,0.6c0.2,0.2,0.4,0.2,0.6,0l1.3-1.3c0.2-0.2,0.2-0.4,0-0.6l-0.6-0.6
					c-0.1-0.1-0.2-0.3-0.1-0.5c0.1-0.2,0.1-0.3,0.2-0.5c0.1-0.2,0.2-0.3,0.4-0.3h0.9c0.2,0,0.4-0.2,0.4-0.4v-1.8
					C764.8,95.4,764.6,95.2,764.4,95.2z M758.4,98.8c-1.2,0-2.2-1-2.2-2.2c0-1.2,1-2.2,2.2-2.2s2.2,1,2.2,2.2
					C760.6,97.8,759.6,98.8,758.4,98.8z"/>
				<circle class="st3" cx="791.2" cy="91.1" r="1"/>
				<circle class="st3" cx="791.2" cy="95.8" r="1"/>
				<circle class="st3" cx="791.2" cy="100.5" r="1"/>
			</g>
			<rect x="588.6" y="368.6" class="st3" width="113" height="5.7"/>
			<rect x="588.6" y="367.5" class="st3" width="214.8" height="1.1"/>
			<rect x="588.6" y="373.8" class="st3" width="214.8" height="1.1"/>
			<g>
				<text transform="matrix(1 0 0 1 672.8281 392.793)" class="st3 st4 st11">-1 C/+1 c</text>
				<text transform="matrix(1 0 0 1 683.0146 387.0112)" class="st3 st4 st12">o</text>
				<text transform="matrix(1 0 0 1 710.6943 387.0112)" class="st3 st4 st12">o</text>
			</g>
			<g>
				<path class="st3" d="M723.5,223.6c-0.9,0-1.7,0.1-2.6,0.2c-2.8-7.7-10.2-13.2-18.9-13.2c-7,0-13.1,3.6-16.7,9
					c-5.9,0.6-10.9,4.5-13,9.8c-0.1,0-0.1,0-0.2,0c-5.9,0-10.7,4.8-10.7,10.7c0,5.9,4.8,10.7,10.7,10.7c2.5,0,47.6,0,51.3,0
					c7.5,0,13.6-6.1,13.6-13.6S731,223.6,723.5,223.6z"/>
				<g>
					<path class="st3" d="M678.3,197.2c0.6,0,1.1-5.9,1.1-6.8s-0.5-2.3-1.1-2.3s-1.1,1.4-1.1,2.3S677.7,197.2,678.3,197.2z"/>
					<path class="st3" d="M694,197.3c0.6-0.6,1.3-1.9,0.8-2.4c-0.4-0.4-1.8,0.3-2.4,0.8c-0.6,0.6-4.4,5.1-4,5.5
						C688.9,201.8,693.4,197.9,694,197.3z"/>
					<path class="st3" d="M673.4,222.6c0.7-0.7,1.4-1.4,2.2-2c2.3-1.8,5.1-2.9,8-3.4c1.9-2.6,4.2-4.7,6.9-6.2
						c-0.3-6.5-5.6-11.7-12.2-11.7c-6.7,0-12.2,5.4-12.2,12.2C666.2,216.4,669.1,220.7,673.4,222.6z"/>
					<path class="st3" d="M662.7,225.6c-0.6,0.6-1.3,1.9-0.8,2.4s1.8-0.3,2.4-0.8c0.6-0.6,4.4-5.1,4-5.5
						C667.8,221.2,663.3,225,662.7,225.6z"/>
					<path class="st3" d="M668.2,201.3c0.4-0.4-3.4-5-4-5.5c-0.6-0.6-1.9-1.3-2.4-0.8c-0.4,0.4,0.3,1.8,0.8,2.4
						C663.3,197.9,667.8,201.8,668.2,201.3z"/>
					<path class="st3" d="M664,211.5c0-0.6-5.9-1.1-6.8-1.1c-0.8,0-2.3,0.5-2.3,1.1c0,0.6,1.4,1.1,2.3,1.1
						C658.1,212.5,664,212.1,664,211.5z"/>
				</g>
			</g>
			<text transform="matrix(1 0 0 1 675.5732 339.0063)" class="st3 st4 st5">Cloudy</text>
		</g>
	</g>
</g>
<g id="text">
</g>
</svg>
